<svg xmlns="http://www.w3.org/2000/svg" viewBox="0 0 1280 720" data-pptx-page-role="content">
  <rect id="page-bg" data-pptx-role="background" x="0" y="0" width="1280" height="720" fill="#FFFDF6"/>
  <text x="60" y="76" font-family="KaiTi, 'Trebuchet MS', serif" font-size="56" font-weight="700" fill="#1F2937">不要急着加新按键，把同一规则玩出五次变化</text>
  <text x="62" y="124" font-family="'Microsoft YaHei', Arial, sans-serif" font-size="24" fill="#596273">以“物体放远会变大”为例</text>
  <g id="escalation-steps" transform="translate(58 176)" font-family="'Microsoft YaHei', Arial, sans-serif">
    <line x1="112" y1="82" x2="1096" y2="82" stroke="#D8D2C5" stroke-width="8" stroke-linecap="round"/>
    <g transform="translate(0 0)"><circle cx="112" cy="82" r="48" fill="#2457A6"/><text x="112" y="94" text-anchor="middle" font-size="32" font-weight="700" fill="#FFFFFF">1</text><rect x="12" y="166" width="200" height="270" rx="22" fill="#EAF0FA" stroke="#2457A6" stroke-width="3"/><text x="112" y="216" text-anchor="middle" font-size="32" font-weight="700" fill="#2457A6">发现</text><text x="112" y="268" text-anchor="middle" font-size="24" fill="#596273">小方块放远</text><text x="112" y="306" text-anchor="middle" font-size="24" fill="#596273">变成台阶</text><text x="112" y="378" text-anchor="middle" font-size="24" font-weight="700" fill="#1F2937">规则能用</text></g>
    <g transform="translate(224 0)"><circle cx="112" cy="82" r="48" fill="#55A68B"/><text x="112" y="94" text-anchor="middle" font-size="32" font-weight="700" fill="#FFFFFF">2</text><rect x="12" y="166" width="200" height="270" rx="22" fill="#E8F5F0" stroke="#55A68B" stroke-width="3"/><text x="112" y="216" text-anchor="middle" font-size="32" font-weight="700" fill="#2F8F6A">简单问题</text><text x="112" y="268" text-anchor="middle" font-size="24" fill="#596273">大障碍拿近</text><text x="112" y="306" text-anchor="middle" font-size="24" fill="#596273">缩小后移走</text><text x="112" y="378" text-anchor="middle" font-size="24" font-weight="700" fill="#1F2937">理解方向</text></g>
    <g transform="translate(448 0)"><circle cx="112" cy="82" r="48" fill="#F2A93B"/><text x="112" y="94" text-anchor="middle" font-size="32" font-weight="700" fill="#FFFFFF">3</text><rect x="12" y="166" width="200" height="270" rx="22" fill="#FFF0D1" stroke="#F2A93B" stroke-width="3"/><text x="112" y="216" text-anchor="middle" font-size="32" font-weight="700" fill="#8C5A00">组合</text><text x="112" y="268" text-anchor="middle" font-size="24" fill="#596273">放大物体</text><text x="112" y="306" text-anchor="middle" font-size="24" fill="#596273">挡住激光</text><text x="112" y="378" text-anchor="middle" font-size="24" font-weight="700" fill="#1F2937">机制相乘</text></g>
    <g transform="translate(672 0)"><circle cx="112" cy="82" r="48" fill="#D85C45"/><text x="112" y="94" text-anchor="middle" font-size="32" font-weight="700" fill="#FFFFFF">4</text><rect x="12" y="166" width="200" height="270" rx="22" fill="#F4F0E8" stroke="#D85C45" stroke-width="3"/><text x="112" y="216" text-anchor="middle" font-size="32" font-weight="700" fill="#D85C45">压力</text><text x="112" y="268" text-anchor="middle" font-size="24" fill="#596273">地面下沉</text><text x="112" y="306" text-anchor="middle" font-size="24" fill="#596273">快速找落点</text><text x="112" y="378" text-anchor="middle" font-size="24" font-weight="700" fill="#1F2937">决策加速</text></g>
    <g transform="translate(896 0)"><circle cx="112" cy="82" r="48" fill="#596273"/><text x="112" y="94" text-anchor="middle" font-size="32" font-weight="700" fill="#FFFFFF">5</text><rect x="12" y="166" width="200" height="270" rx="22" fill="#FFFFFF" stroke="#596273" stroke-width="3"/><text x="112" y="216" text-anchor="middle" font-size="32" font-weight="700" fill="#1F2937">反向利用</text><text x="112" y="268" text-anchor="middle" font-size="24" fill="#596273">把门缩小</text><text x="112" y="306" text-anchor="middle" font-size="24" fill="#596273">阻挡追兵</text><text x="112" y="378" text-anchor="middle" font-size="24" font-weight="700" fill="#1F2937">重新定义问题</text></g>
  </g>
  <g id="footer" data-pptx-role="footer">
    <line x1="58" y1="667" x2="1178" y2="667" stroke="#D8D2C5" stroke-width="2"/>
    <text x="60" y="700" font-family="'Microsoft YaHei', Arial, sans-serif" font-size="18" fill="#8A8F98">教学曲线 · 发现—应用—组合—压力—反转</text>
    <text id="slide-number" data-pptx-role="page-number" x="1218" y="700" text-anchor="end" font-family="'Microsoft YaHei', Arial, sans-serif" font-size="18" fill="#8A8F98">05</text>
  </g>
</svg>
