<svg xmlns="http://www.w3.org/2000/svg" viewBox="0 0 1280 720" data-pptx-page-role="content">
  <rect id="page-bg" data-pptx-role="background" x="0" y="0" width="1280" height="720" fill="#FFFDF6"/>
  <text x="60" y="76" font-family="KaiTi, 'Trebuchet MS', serif" font-size="56" font-weight="700" fill="#1F2937">《看门狗》：控制权沿着摄像机网络移动</text>
  <text x="62" y="124" font-family="'Microsoft YaHei', Arial, sans-serif" font-size="24" fill="#596273">角色身体留在原地，视线与操作范围进入远处空间</text>
  <g id="camera-network" transform="translate(70 158)" font-family="'Microsoft YaHei', Arial, sans-serif">
    <g stroke="#596273" stroke-width="5" fill="none" stroke-linecap="round">
      <line x1="190" y1="96" x2="430" y2="220"/>
      <line x1="430" y1="220" x2="685" y2="96"/>
      <line x1="685" y1="96" x2="930" y2="220"/>
      <line x1="930" y1="220" x2="1080" y2="96"/>
    </g>
    <g>
      <rect x="90" y="28" width="200" height="136" rx="22" fill="#EAF0FA" stroke="#2457A6" stroke-width="3"/>
      <!-- icon: tabler-outline/walk -->
  <g transform="translate(122, 52) scale(2.33333)" fill="none" stroke="#2457A6" stroke-width="2">
    <path d="M12 4a1 1 0 1 0 2 0a1 1 0 1 0 -2 0" />
    <path d="M7 21l3 -4" />
    <path d="M16 21l-2 -4l-3 -3l1 -6" />
    <path d="M6 12l2 -3l4 -1l3 3l3 1" />
  </g>
      <text x="202" y="84" font-size="24" font-weight="700" fill="#2457A6">玩家本体</text>
      <text x="190" y="136" text-anchor="middle" font-size="24" fill="#596273">仍然可能受威胁</text>
    </g>
    <g>
      <circle cx="430" cy="220" r="82" fill="#2457A6"/>
      <!-- icon: tabler-outline/camera -->
  <g transform="translate(390, 170) scale(3.33333)" fill="none" stroke="#FFFFFF" stroke-width="2">
    <path d="M5 7h1a2 2 0 0 0 2 -2a1 1 0 0 1 1 -1h6a1 1 0 0 1 1 1a2 2 0 0 0 2 2h1a2 2 0 0 1 2 2v9a2 2 0 0 1 -2 2h-14a2 2 0 0 1 -2 -2v-9a2 2 0 0 1 2 -2" />
    <path d="M9 13a3 3 0 1 0 6 0a3 3 0 0 0 -6 0" />
  </g>
      <text x="430" y="292" text-anchor="middle" font-size="24" font-weight="700" fill="#2457A6">Camera A</text>
    </g>
    <g>
      <circle cx="685" cy="96" r="82" fill="#55A68B"/>
      <!-- icon: tabler-outline/camera -->
  <g transform="translate(645, 46) scale(3.33333)" fill="none" stroke="#FFFFFF" stroke-width="2">
    <path d="M5 7h1a2 2 0 0 0 2 -2a1 1 0 0 1 1 -1h6a1 1 0 0 1 1 1a2 2 0 0 0 2 2h1a2 2 0 0 1 2 2v9a2 2 0 0 1 -2 2h-14a2 2 0 0 1 -2 -2v-9a2 2 0 0 1 2 -2" />
    <path d="M9 13a3 3 0 1 0 6 0a3 3 0 0 0 -6 0" />
  </g>
      <text x="685" y="180" text-anchor="middle" font-size="24" font-weight="700" fill="#2F8F6A">Camera B</text>
    </g>
    <g>
      <circle cx="930" cy="220" r="82" fill="#F2A93B"/>
      <!-- icon: tabler-outline/pointer -->
  <g transform="translate(890, 170) scale(3.33333)" fill="none" stroke="#FFFFFF" stroke-width="2">
    <path d="M7.904 17.563a1.2 1.2 0 0 0 2.228 .308l2.09 -3.093l4.907 4.907a1.067 1.067 0 0 0 1.509 0l1.047 -1.047a1.067 1.067 0 0 0 0 -1.509l-4.907 -4.907l3.113 -2.09a1.2 1.2 0 0 0 -.309 -2.228l-13.582 -3.904l3.904 13.563" />
  </g>
      <text x="930" y="292" text-anchor="middle" font-size="24" font-weight="700" fill="#8C5A00">门控制器</text>
    </g>
    <g>
      <rect x="1000" y="28" width="160" height="136" rx="22" fill="#E8F5F0" stroke="#55A68B" stroke-width="3"/>
      <rect x="1038" y="48" width="84" height="74" rx="10" fill="#55A68B"/>
      <path d="M1080 60 V112 M1064 86 H1096" stroke="#FFFFFF" stroke-width="6" stroke-linecap="round"/>
      <text x="1080" y="148" text-anchor="middle" font-size="24" font-weight="700" fill="#2F8F6A">门打开</text>
    </g>
    <rect x="60" y="350" width="1060" height="176" rx="26" fill="#FFFFFF" stroke="#D8D2C5" stroke-width="3"/>
    <text x="90" y="398" font-size="36" font-weight="700" fill="#1F2937">实现框架：CameraNode + IRemoteDevice</text>
    <text x="90" y="446" font-size="24" fill="#596273">摄像机只负责切换视角、寻找目标与调用 Use()</text>
    <text x="90" y="486" font-size="24" fill="#596273">门、灯、升降机各自处理动画、状态与重复触发保护</text>
    <text x="90" y="516" font-size="24" font-weight="700" fill="#D85C45">始终允许退出监控，并提示玩家本体是否安全</text>
  </g>
  <g id="footer" data-pptx-role="footer">
    <line x1="58" y1="667" x2="1178" y2="667" stroke="#D8D2C5" stroke-width="2"/>
    <text x="60" y="700" font-family="'Microsoft YaHei', Arial, sans-serif" font-size="18" fill="#8A8F98">案例 · 摄像机网络与远程设备</text>
    <text id="slide-number" data-pptx-role="page-number" x="1218" y="700" text-anchor="end" font-family="'Microsoft YaHei', Arial, sans-serif" font-size="18" fill="#8A8F98">07</text>
  </g>
</svg>
