<svg xmlns="http://www.w3.org/2000/svg" viewBox="0 0 1280 720" data-pptx-page-role="cover">
  <rect id="page-bg" data-pptx-role="background" x="0" y="0" width="1280" height="720" fill="#FFFDF6"/>
  <path d="M0 586 C230 526 390 676 635 608 C860 546 1040 610 1280 520 L1280 720 L0 720 Z" fill="#F4F0E8"/>
  <path d="M72 114 C220 86 350 104 502 92" fill="none" stroke="#F2A93B" stroke-width="10" stroke-linecap="round"/>
  <text x="68" y="236" font-family="KaiTi, 'Trebuchet MS', serif" font-size="92" font-weight="700" fill="#1F2937">Unity 语法基础</text>
  <text x="72" y="306" font-family="KaiTi, 'Trebuchet MS', serif" font-size="42" font-weight="700" fill="#2457A6">MonoBehaviour、生命周期与常用对象</text>
  <text x="74" y="374" font-family="'Microsoft YaHei', Arial, sans-serif" font-size="32" fill="#596273">让脚本在正确的对象上，于正确的时机做正确的事</text>
  <g id="component-hero" transform="translate(770 76)">
    <rect x="0" y="0" width="424" height="476" rx="28" fill="#FFF9E9" stroke="#D8D2C5" stroke-width="3"/>
    <text x="30" y="48" font-family="Consolas, 'Courier New', monospace" font-size="24" fill="#8A8F98">SCRIPT → COMPONENT</text>
    <rect x="52" y="86" width="320" height="300" rx="24" fill="#FFFFFF" stroke="#2457A6" stroke-width="4"/>
    <g id="gameobject-label">
      <!-- icon: tabler-outline/cube -->
  <g transform="translate(78, 110) scale(1.75)" fill="none" stroke="#2457A6" stroke-width="2">
    <path d="M21 16.008v-8.018a1.98 1.98 0 0 0 -1 -1.717l-7 -4.008a2.016 2.016 0 0 0 -2 0l-7 4.008c-.619 .355 -1 1.01 -1 1.718v8.018c0 .709 .381 1.363 1 1.717l7 4.008a2.016 2.016 0 0 0 2 0l7 -4.008c.619 -.355 1 -1.01 1 -1.718" />
    <path d="M12 22v-10" />
    <path d="M12 12l8.73 -5.04" />
    <path d="M3.27 6.96l8.73 5.04" />
  </g>
      <text x="136" y="142" font-family="'Microsoft YaHei', Arial, sans-serif" font-size="32" font-weight="700" fill="#1F2937">Player</text>
      <text x="318" y="139" text-anchor="end" font-family="Consolas, 'Courier New', monospace" font-size="18" fill="#8A8F98">GameObject</text>
    </g>
    <line x1="76" y1="168" x2="348" y2="168" stroke="#D8D2C5" stroke-width="3" stroke-linecap="round"/>
    <g id="component-slots" font-family="'Microsoft YaHei', Arial, sans-serif" font-size="24" font-weight="700">
      <rect x="76" y="188" width="272" height="54" rx="14" fill="#EAF0FA" stroke="#2457A6" stroke-width="2"/>
      <!-- icon: tabler-outline/transform -->
  <g transform="translate(92, 200) scale(1.25)" fill="none" stroke="#2457A6" stroke-width="2">
    <path d="M3 6a3 3 0 1 0 6 0a3 3 0 0 0 -6 0" />
    <path d="M21 11v-3a2 2 0 0 0 -2 -2h-6l3 3m0 -6l-3 3" />
    <path d="M3 13v3a2 2 0 0 0 2 2h6l-3 -3m0 6l3 -3" />
    <path d="M15 18a3 3 0 1 0 6 0a3 3 0 0 0 -6 0" />
  </g>
      <text x="138" y="224" fill="#2457A6">Transform</text>
      <rect x="76" y="254" width="272" height="54" rx="14" fill="#E8F5F0" stroke="#55A68B" stroke-width="2"/>
      <!-- icon: tabler-outline/components -->
  <g transform="translate(92, 266) scale(1.25)" fill="none" stroke="#2F8F6A" stroke-width="2">
    <path d="M3 12l3 3l3 -3l-3 -3l-3 3" />
    <path d="M15 12l3 3l3 -3l-3 -3l-3 3" />
    <path d="M9 6l3 3l3 -3l-3 -3l-3 3" />
    <path d="M9 18l3 3l3 -3l-3 -3l-3 3" />
  </g>
      <text x="138" y="290" fill="#2F8F6A">CharacterController</text>
      <rect x="76" y="320" width="272" height="54" rx="14" fill="#FFF0D1" stroke="#F2A93B" stroke-width="3"/>
      <!-- icon: tabler-outline/code -->
  <g transform="translate(92, 332) scale(1.25)" fill="none" stroke="#8C5A00" stroke-width="2">
    <path d="M7 8l-4 4l4 4" />
    <path d="M17 8l4 4l-4 4" />
    <path d="M14 4l-4 16" />
  </g>
      <text x="138" y="356" fill="#8C5A00">SimpleMover.cs</text>
    </g>
    <path d="M348 346 C398 346 399 425 340 425" fill="none" stroke="#F2A93B" stroke-width="5" stroke-linecap="round"/>
    <path d="M350 408 L332 425 L352 439" fill="none" stroke="#F2A93B" stroke-width="5" stroke-linecap="round" stroke-linejoin="round"/>
    <!-- icon: tabler-outline/repeat -->
  <g transform="translate(280, 399) scale(2.25)" fill="none" stroke="#F2A93B" stroke-width="2">
    <path d="M4 12v-3a3 3 0 0 1 3 -3h13m-3 -3l3 3l-3 3" />
    <path d="M20 12v3a3 3 0 0 1 -3 3h-13m3 3l-3 -3l3 -3" />
  </g>
  </g>
  <g id="cover-formula" transform="translate(72 492)">
    <rect x="0" y="0" width="612" height="88" rx="20" fill="#FFFFFF" stroke="#D8D2C5" stroke-width="3"/>
    <!-- icon: tabler-outline/clock -->
  <g transform="translate(24, 24) scale(1.66667)" fill="none" stroke="#2457A6" stroke-width="2">
    <path d="M3 12a9 9 0 1 0 18 0a9 9 0 0 0 -18 0" />
    <path d="M12 7v5l3 3" />
  </g>
    <text x="84" y="55" font-family="Consolas, 'Courier New', monospace" font-size="24" font-weight="700" fill="#1F2937">Object + Callback + Time.deltaTime</text>
  </g>
  <text x="74" y="674" font-family="'Microsoft YaHei', Arial, sans-serif" font-size="18" fill="#8A8F98">Unity 基础课程 · 第 02 单元</text>
</svg>
