<svg xmlns="http://www.w3.org/2000/svg" viewBox="0 0 1280 720" data-pptx-page-role="toc">
  <rect id="page-bg" data-pptx-role="background" x="0" y="0" width="1280" height="720" fill="#FFFDF6"/>
  <g id="title-block">
    <text x="60" y="86" font-family="KaiTi, 'Trebuchet MS', serif" font-size="56" font-weight="700" fill="#1F2937">从“脚本挂上去”走到“角色跑起来”</text>
    <path d="M60 106 C250 100 400 110 580 102" fill="none" stroke="#F2A93B" stroke-width="7" stroke-linecap="round"/>
  </g>
  <g id="agenda-rail">
    <path d="M118 166 C112 280 126 414 118 586" fill="none" stroke="#2457A6" stroke-width="4" stroke-linecap="round"/>
    <g id="agenda-item-1">
      <circle cx="118" cy="176" r="28" fill="#2457A6"/>
      <text x="118" y="185" text-anchor="middle" font-family="Consolas, 'Courier New', monospace" font-size="24" font-weight="700" fill="#FFFFFF">01</text>
      <text x="174" y="171" font-family="'Microsoft YaHei', Arial, sans-serif" font-size="32" font-weight="700" fill="#1F2937">脚本如何成为组件</text>
      <text x="174" y="202" font-family="'Microsoft YaHei', Arial, sans-serif" font-size="24" fill="#596273">MonoBehaviour、文件名与类名、三个常用入口</text>
    </g>
    <g id="agenda-item-2">
      <circle cx="118" cy="278" r="28" fill="#2457A6"/>
      <text x="118" y="287" text-anchor="middle" font-family="Consolas, 'Courier New', monospace" font-size="24" font-weight="700" fill="#FFFFFF">02</text>
      <text x="174" y="273" font-family="'Microsoft YaHei', Arial, sans-serif" font-size="32" font-weight="700" fill="#1F2937">生命周期与三个更新循环</text>
      <text x="174" y="304" font-family="'Microsoft YaHei', Arial, sans-serif" font-size="24" fill="#596273">Awake 到 OnDestroy；Update / Fixed / Late</text>
    </g>
    <g id="agenda-item-3">
      <circle cx="118" cy="380" r="28" fill="#55A68B"/>
      <text x="118" y="389" text-anchor="middle" font-family="Consolas, 'Courier New', monospace" font-size="24" font-weight="700" fill="#FFFFFF">03</text>
      <text x="174" y="375" font-family="'Microsoft YaHei', Arial, sans-serif" font-size="32" font-weight="700" fill="#1F2937">Transform 与 GameObject</text>
      <text x="174" y="406" font-family="'Microsoft YaHei', Arial, sans-serif" font-size="24" fill="#596273">空间、层级、组件引用、对象创建与销毁</text>
    </g>
    <g id="agenda-item-4">
      <circle cx="118" cy="482" r="28" fill="#F2A93B"/>
      <text x="118" y="491" text-anchor="middle" font-family="Consolas, 'Courier New', monospace" font-size="24" font-weight="700" fill="#FFFFFF">04</text>
      <text x="174" y="477" font-family="'Microsoft YaHei', Arial, sans-serif" font-size="32" font-weight="700" fill="#1F2937">CharacterController</text>
      <text x="174" y="508" font-family="'Microsoft YaHei', Arial, sans-serif" font-size="24" fill="#596273">Move、重力、跳跃、碰撞与选择边界</text>
    </g>
    <g id="agenda-item-5">
      <circle cx="118" cy="584" r="30" fill="#D85C45"/>
      <text x="118" y="593" text-anchor="middle" font-family="Consolas, 'Courier New', monospace" font-size="24" font-weight="700" fill="#FFFFFF">05</text>
      <text x="174" y="579" font-family="'Microsoft YaHei', Arial, sans-serif" font-size="32" font-weight="700" fill="#1F2937">角色 + 摄像机的场景闭环</text>
      <text x="174" y="610" font-family="'Microsoft YaHei', Arial, sans-serif" font-size="24" fill="#596273">Player 先移动，Camera 后跟随</text>
    </g>
  </g>
  <g id="goal-card" transform="translate(865 184)">
    <rect x="0" y="0" width="345" height="360" rx="26" fill="#FFF9E9" stroke="#D8D2C5" stroke-width="3"/>
    <!-- icon: tabler-outline/walk -->
  <g transform="translate(126, 40) scale(3.83333)" fill="none" stroke="#2457A6" stroke-width="2">
    <path d="M12 4a1 1 0 1 0 2 0a1 1 0 1 0 -2 0" />
    <path d="M7 21l3 -4" />
    <path d="M16 21l-2 -4l-3 -3l1 -6" />
    <path d="M6 12l2 -3l4 -1l3 3l3 1" />
  </g>
    <path d="M62 158 C130 145 221 169 286 154" fill="none" stroke="#F2A93B" stroke-width="6" stroke-linecap="round"/>
    <text x="172" y="206" text-anchor="middle" font-family="KaiTi, 'Trebuchet MS', serif" font-size="36" font-weight="700" fill="#2457A6">最终目标</text>
    <text x="172" y="252" text-anchor="middle" font-family="'Microsoft YaHei', Arial, sans-serif" font-size="24" fill="#1F2937">写出一个可移动、可跳跃、</text>
    <text x="172" y="286" text-anchor="middle" font-family="'Microsoft YaHei', Arial, sans-serif" font-size="24" fill="#1F2937">能碰撞、被摄像机跟随的角色</text>
    <rect x="56" y="316" width="233" height="28" rx="14" fill="#E8F5F0"/>
    <text x="172" y="337" text-anchor="middle" font-family="Consolas, 'Courier New', monospace" font-size="18" font-weight="700" fill="#2F8F6A">A RUNNABLE MINIMUM</text>
  </g>
  <line id="footer-line" x1="58" y1="667" x2="1222" y2="667" stroke="#D8D2C5" stroke-width="2"/>
  <text x="60" y="700" font-family="'Microsoft YaHei', Arial, sans-serif" font-size="18" fill="#8A8F98">Unity 语法基础 · 学习路线</text>
  <text id="page-number" data-pptx-role="page-number" x="1220" y="700" text-anchor="end" font-family="Consolas, 'Courier New', monospace" font-size="18" fill="#8A8F98">2</text>
</svg>
