<svg xmlns="http://www.w3.org/2000/svg" viewBox="0 0 1280 720" data-pptx-page-role="content"><rect width="1280" height="720" fill="#F7F9FC"/><text x="60" y="82" font-family="'Segoe UI','Microsoft YaHei',sans-serif" font-size="56" font-weight="700" fill="#172033">GameObject 是容器，Component 才是能力</text><text x="62" y="128" font-family="'Segoe UI','Microsoft YaHei',sans-serif" font-size="32" fill="#56627A">多个小组件组合成一个可工作的游戏对象</text><g id="hub"><circle cx="640" cy="390" r="108" fill="#3157D5"/><text x="568" y="382" font-family="'Segoe UI','Microsoft YaHei',sans-serif" font-size="32" font-weight="700" fill="#FFFFFF">BALL</text><text x="548" y="425" font-family="'Segoe UI','Microsoft YaHei',sans-serif" font-size="24" fill="#EAF0FF">GameObject</text>
<g fill="#FFFFFF" stroke="#C9D4F2" stroke-width="2"><rect x="90" y="220" width="260" height="96" rx="18"/><rect x="90" y="430" width="260" height="96" rx="18"/><rect x="465" y="545" width="350" height="96" rx="18"/><rect x="930" y="220" width="260" height="96" rx="18"/><rect x="930" y="430" width="260" height="96" rx="18"/></g><g stroke="#22A6B3" stroke-width="5"><path d="M350 268 L540 350"/><path d="M350 478 L540 430"/><path d="M640 498 L640 545"/><path d="M930 268 L740 350"/><path d="M930 478 L740 430"/></g><g font-family="'Segoe UI','Microsoft YaHei',sans-serif" font-size="32" font-weight="700" fill="#172033"><text x="130" y="280">Transform</text><text x="118" y="490">SpriteRenderer</text><text x="520" y="604">BallController</text><text x="975" y="280">Rigidbody2D</text><text x="975" y="490">Collider2D</text></g></g><text id="page-number" data-pptx-role="page-number" x="1190" y="680" font-family="'Segoe UI','Microsoft YaHei',sans-serif" font-size="18" fill="#8490A8">4</text></svg>



