<svg xmlns="http://www.w3.org/2000/svg" viewBox="0 0 1280 720" data-pptx-page-role="content">
  <rect id="page-bg" data-pptx-role="background" x="0" y="0" width="1280" height="720" fill="#FFFDF6"/>
  <text x="60" y="78" font-family="KaiTi, 'Trebuchet MS', serif" font-size="56" font-weight="700" fill="#1F2937">Unity 的基本语法：对象是容器，组件给能力</text>
  <text x="62" y="130" font-family="'Microsoft YaHei', Arial, sans-serif" font-size="24" fill="#596273">场景负责组织对象，对象通过组合组件获得行为</text>
  <g stroke="#596273" stroke-width="4" fill="none" stroke-linecap="round" stroke-linejoin="round">
    <line x1="640" y1="205" x2="640" y2="258"/>
    <line x1="264" y1="258" x2="1016" y2="258"/>
    <line x1="264" y1="258" x2="264" y2="306"/>
    <line x1="640" y1="258" x2="640" y2="306"/>
    <line x1="1016" y1="258" x2="1016" y2="306"/>
  </g>
  <rect x="505" y="160" width="270" height="64" rx="20" fill="#2457A6"/>
  <use data-icon="tabler-outline/hierarchy-3" x="528" y="176" width="34" height="34" fill="#FFFFFF" stroke-width="2"/>
  <text x="652" y="203" text-anchor="middle" font-family="'Microsoft YaHei', Arial, sans-serif" font-size="32" font-weight="700" fill="#FFFFFF">Scene 场景</text>
  <g font-family="'Microsoft YaHei', Arial, sans-serif">
    <g transform="translate(94 306)">
      <rect x="0" y="0" width="340" height="286" rx="24" fill="#FFFFFF" stroke="#D8D2C5" stroke-width="3"/>
      <rect x="0" y="0" width="340" height="74" rx="24" fill="#EAF0FA"/>
      <use data-icon="tabler-outline/cube" x="24" y="18" width="38" height="38" fill="#2457A6" stroke-width="2"/>
      <text x="82" y="49" font-size="32" font-weight="700" fill="#2457A6">Environment</text>
      <text x="28" y="122" font-size="24" fill="#596273">地面 · 墙体 · 道具</text>
      <text x="28" y="165" font-size="24" fill="#596273">灯光 · 天空盒</text>
      <path d="M28 198 C94 184 168 214 304 194" fill="none" stroke="#F2A93B" stroke-width="6" stroke-linecap="round"/>
      <text x="28" y="245" font-size="24" font-weight="700" fill="#1F2937">负责构成世界</text>
    </g>
    <g transform="translate(470 306)">
      <rect x="0" y="0" width="340" height="286" rx="24" fill="#FFFFFF" stroke="#55A68B" stroke-width="4"/>
      <rect x="0" y="0" width="340" height="74" rx="24" fill="#E8F5F0"/>
      <use data-icon="tabler-outline/walk" x="24" y="18" width="38" height="38" fill="#55A68B" stroke-width="2"/>
      <text x="82" y="49" font-size="32" font-weight="700" fill="#2F8F6A">Player</text>
      <g fill="#FFF9E9" stroke="#D8D2C5" stroke-width="2">
        <rect x="24" y="102" width="132" height="50" rx="14"/>
        <rect x="184" y="102" width="132" height="50" rx="14"/>
        <rect x="24" y="170" width="132" height="50" rx="14"/>
        <rect x="184" y="170" width="132" height="50" rx="14"/>
      </g>
      <g font-size="24" font-weight="700" fill="#1F2937" text-anchor="middle">
        <text x="90" y="136">Transform</text>
        <text x="250" y="136">Collider</text>
        <text x="90" y="204">Renderer</text>
        <text x="250" y="204">Script</text>
      </g>
      <text x="170" y="260" text-anchor="middle" font-size="24" fill="#596273">能力来自组件组合</text>
    </g>
    <g transform="translate(846 306)">
      <rect x="0" y="0" width="340" height="286" rx="24" fill="#FFFFFF" stroke="#D8D2C5" stroke-width="3"/>
      <rect x="0" y="0" width="340" height="74" rx="24" fill="#FFF0D1"/>
      <use data-icon="tabler-outline/camera" x="24" y="18" width="38" height="38" fill="#F2A93B" stroke-width="2"/>
      <text x="82" y="49" font-size="32" font-weight="700" fill="#8C5A00">Camera</text>
      <text x="28" y="122" font-size="24" fill="#596273">位置与朝向</text>
      <text x="28" y="165" font-size="24" fill="#596273">视野与裁剪面</text>
      <path d="M28 198 C108 214 210 180 304 198" fill="none" stroke="#2457A6" stroke-width="6" stroke-linecap="round"/>
      <text x="28" y="245" font-size="24" font-weight="700" fill="#1F2937">决定玩家看见什么</text>
    </g>
  </g>
  <g id="footer" data-pptx-role="footer">
    <line x1="58" y1="667" x2="1178" y2="667" stroke="#D8D2C5" stroke-width="2"/>
    <text x="60" y="700" font-family="'Microsoft YaHei', Arial, sans-serif" font-size="18" fill="#8A8F98">Scene → GameObject → Component</text>
    <text id="slide-number" data-pptx-role="page-number" x="1218" y="700" text-anchor="end" font-family="'Microsoft YaHei', Arial, sans-serif" font-size="18" fill="#8A8F98">03</text>
  </g>
</svg>
