<svg xmlns="http://www.w3.org/2000/svg" viewBox="0 0 1280 720" data-pptx-page-role="content">
  <rect id="background" data-pptx-role="background" x="0" y="0" width="1280" height="720" fill="#FFFDF6"/>
  <text x="62" y="84" font-family="KaiTi, 'Trebuchet MS', serif" font-size="56" font-weight="700" fill="#2457A6">继承表达“是一种”关系</text>
  <text x="66" y="128" font-family="'Microsoft YaHei', Arial, sans-serif" font-size="24" fill="#596273">Player 是一种 Character：复用共同能力，再增加自己的行为。</text>
  <g id="inheritance-tree">
    <path d="M378 175 C493 166 616 173 735 181 L733 306 C610 316 491 311 379 301 Z" fill="#2457A6"/>
    <use data-icon="tabler-outline/hierarchy-3" x="410" y="201" width="56" height="56" fill="#FFFDF6" stroke-width="2"/>
    <text x="492" y="230" font-family="KaiTi, 'Trebuchet MS', serif" font-size="36" font-weight="700" fill="#FFFDF6">父类 / 基类</text>
    <text x="492" y="276" font-family="Consolas, 'Courier New', monospace" font-size="32" font-weight="700" fill="#FFFDF6">Character</text>
    <path d="M556 309 C548 353 568 386 558 429" fill="none" stroke="#1A1A1A" stroke-width="5" stroke-linecap="round"/>
    <path d="M545 414 L557 433 L571 416" fill="none" stroke="#1A1A1A" stroke-width="5" stroke-linecap="round" stroke-linejoin="round"/>
    <path d="M286 322 C420 311 603 318 741 329 L736 418 C590 428 428 424 286 414 Z" fill="#FFF9E9" stroke="#F2A93B" stroke-width="3"/>
    <text x="310" y="354" font-family="'Microsoft YaHei', Arial, sans-serif" font-size="24" font-weight="700" fill="#1F2937">共享成员</text>
    <text x="310" y="385" font-family="Consolas, 'Courier New', monospace" font-size="24" fill="#596273">Name · Health</text>
    <text x="510" y="385" font-family="Consolas, 'Courier New', monospace" font-size="24" fill="#596273">TakeDamage()</text>
    <path d="M340 440 C481 430 638 437 780 446 L777 581 C632 592 480 586 341 576 Z" fill="#55A68B"/>
    <text x="410" y="485" font-family="KaiTi, 'Trebuchet MS', serif" font-size="36" font-weight="700" fill="#FFFDF6">子类 / 派生类</text>
    <text x="410" y="531" font-family="Consolas, 'Courier New', monospace" font-size="32" font-weight="700" fill="#FFFDF6">Player : Character</text>
    <text x="410" y="564" font-family="Consolas, 'Courier New', monospace" font-size="24" fill="#FFFDF6">+ UseItem()</text>
  </g>
  <g id="inheritance-explanation">
    <text x="74" y="214" font-family="KaiTi, 'Trebuchet MS', serif" font-size="36" font-weight="700" fill="#F2A93B">冒号就是继承</text>
    <text x="74" y="260" font-family="Consolas, 'Courier New', monospace" font-size="24" fill="#1F2937">public class Player</text>
    <text x="74" y="295" font-family="Consolas, 'Courier New', monospace" font-size="24" font-weight="700" fill="#2457A6">    : Character</text>
    <path d="M80 319 C160 307 239 315 303 307" fill="none" stroke="#F2A93B" stroke-width="4" stroke-linecap="round"/>
    <text x="74" y="498" font-family="KaiTi, 'Trebuchet MS', serif" font-size="32" font-weight="700" fill="#2457A6">构造器继续向上交接</text>
    <text x="74" y="542" font-family="Consolas, 'Courier New', monospace" font-size="24" fill="#1F2937">Player(int health)</text>
    <text x="74" y="579" font-family="Consolas, 'Courier New', monospace" font-size="24" font-weight="700" fill="#55A68B">    : base(health)</text>
  </g>
  <g id="spot-inheritance-vector">
    <path d="M826 176 C949 163 1088 172 1211 190 L1206 548 C1082 565 951 558 824 541 Z" fill="#FFF9E9" stroke="#D8D2C5" stroke-width="3"/>
    <path d="M1017 238 L1017 310 M1017 310 L921 360 M1017 310 L1113 360" fill="none" stroke="#2457A6" stroke-width="7" stroke-linecap="round" stroke-linejoin="round"/>
    <rect x="944" y="204" width="146" height="64" rx="18" fill="#2457A6" stroke="#1A1A1A" stroke-width="3"/>
    <text x="1017" y="246" text-anchor="middle" font-family="Consolas, 'Courier New', monospace" font-size="24" font-weight="700" fill="#FFFDF6">GameUnit</text>
    <rect x="850" y="350" width="144" height="70" rx="18" fill="#55A68B" stroke="#1A1A1A" stroke-width="3"/>
    <text x="922" y="393" text-anchor="middle" font-family="Consolas, 'Courier New', monospace" font-size="24" font-weight="700" fill="#FFFDF6">Player</text>
    <rect x="1040" y="350" width="146" height="70" rx="18" fill="#F2A93B" stroke="#1A1A1A" stroke-width="3"/>
    <text x="1113" y="393" text-anchor="middle" font-family="Consolas, 'Courier New', monospace" font-size="24" font-weight="700" fill="#1F2937">Enemy</text>
    <path d="M881 450 C924 438 977 441 1017 454 C1057 441 1111 438 1154 451" fill="none" stroke="#55A68B" stroke-width="4" stroke-linecap="round" stroke-dasharray="8 7"/>
    <text x="1017" y="500" text-anchor="middle" font-family="KaiTi, 'Trebuchet MS', serif" font-size="32" font-weight="700" fill="#1F2937">共同能力向下复用</text>
  </g>
  <g id="footer" data-pptx-role="footer">
    <path d="M58 667 C342 662 618 670 906 666 C1036 664 1110 669 1178 666" fill="none" stroke="#D8D2C5" stroke-width="2"/>
    <text x="60" y="700" font-family="'Microsoft YaHei', Arial, sans-serif" font-size="18" fill="#8A8F98">C# 入门 · 继承与复用</text>
  </g>
  <text id="slide-number" data-pptx-role="page-number" x="1218" y="700" text-anchor="end" font-family="'Microsoft YaHei', Arial, sans-serif" font-size="18" fill="#8A8F98">06</text>
</svg>
