<svg xmlns="http://www.w3.org/2000/svg" viewBox="0 0 1280 720" data-pptx-page-role="cover">
  <rect id="page-bg" data-pptx-role="background" x="0" y="0" width="1280" height="720" fill="#FFFDF6"/>
  <path d="M0 588 C250 510 390 690 650 606 C900 528 1060 626 1280 520 L1280 720 L0 720 Z" fill="#F4F0E8"/>
  <path d="M68 114 C230 88 380 110 516 92" fill="none" stroke="#55A68B" stroke-width="10" stroke-linecap="round"/>
  <text x="66" y="244" font-family="KaiTi, 'Trebuchet MS', serif" font-size="92" font-weight="700" fill="#1F2937">Unity UI 基础</text>
  <text x="70" y="312" font-family="KaiTi, 'Trebuchet MS', serif" font-size="42" font-weight="700" fill="#2457A6">Canvas、EventSystem 与常用 UGUI 控件</text>
  <text x="72" y="378" font-family="'Microsoft YaHei', Arial, sans-serif" font-size="32" fill="#596273">把“看得见”变成“点得到、会响应、能适配”</text>
  <g id="ui-window" transform="translate(785 82)">
    <rect x="0" y="0" width="420" height="480" rx="28" fill="#FFFFFF" stroke="#D8D2C5" stroke-width="4"/>
    <rect x="0" y="0" width="420" height="66" rx="28" fill="#2457A6"/>
    <circle cx="35" cy="33" r="10" fill="#D85C45"/>
    <circle cx="65" cy="33" r="10" fill="#F2A93B"/>
    <circle cx="95" cy="33" r="10" fill="#55A68B"/>
    <text x="210" y="43" text-anchor="middle" font-family="Consolas, 'Courier New', monospace" font-size="24" fill="#FFFFFF">SETTINGS</text>
    <rect x="32" y="96" width="356" height="110" rx="20" fill="#EAF0FA"/>
    <use data-icon="tabler-outline/camera" x="166" y="111" width="88" height="88" fill="#2457A6" stroke-width="2"/>
    <text x="40" y="254" font-family="'Microsoft YaHei', Arial, sans-serif" font-size="24" fill="#1F2937">音乐</text>
    <rect x="302" y="226" width="86" height="46" rx="23" fill="#55A68B"/>
    <circle cx="365" cy="249" r="18" fill="#FFFFFF"/>
    <text x="40" y="326" font-family="'Microsoft YaHei', Arial, sans-serif" font-size="24" fill="#1F2937">画质</text>
    <rect x="190" y="292" width="198" height="50" rx="14" fill="#FFF9E9" stroke="#D8D2C5" stroke-width="3"/>
    <text x="214" y="326" font-family="'Microsoft YaHei', Arial, sans-serif" font-size="24" fill="#596273">高</text>
    <path d="M346 310 L360 326 L374 310" fill="none" stroke="#596273" stroke-width="4" stroke-linecap="round" stroke-linejoin="round"/>
    <rect x="90" y="382" width="240" height="62" rx="18" fill="#F2A93B"/>
    <text x="210" y="424" text-anchor="middle" font-family="'Microsoft YaHei', Arial, sans-serif" font-size="32" font-weight="700" fill="#FFFFFF">应用设置</text>
  </g>
  <g id="cover-tag" transform="translate(70 500)">
    <rect x="0" y="0" width="610" height="82" rx="20" fill="#FFFFFF" stroke="#D8D2C5" stroke-width="3"/>
    <use data-icon="tabler-outline/layout-dashboard" x="24" y="21" width="40" height="40" fill="#2457A6" stroke-width="2"/>
    <text x="84" y="52" font-family="Consolas, 'Courier New', monospace" font-size="24" font-weight="700" fill="#1F2937">Canvas + Input + Controls + Events</text>
  </g>
  <text x="72" y="674" font-family="'Microsoft YaHei', Arial, sans-serif" font-size="18" fill="#8A8F98">Unity UI 基础课程 · 第 04 单元</text>
</svg>
