<?xml version='1.0' encoding='UTF-8'?>
<svg xmlns="http://www.w3.org/2000/svg" viewBox="0 0 1280 720" data-pptx-page-role="cover">
  <rect id="background" data-pptx-role="background" x="0" y="0" width="1280" height="720" fill="#FFFDF6" />
  <path d="M0 0 H1280 V720 H0 Z" fill="#FFFDF6" />
  <path d="M0 566 C184 546 348 590 512 568 C718 539 910 582 1280 548 V720 H0 Z" fill="#F4F0E8" />
  <path d="M74 96 C154 89 225 104 305 93" fill="none" stroke="#F2A93B" stroke-width="7" stroke-linecap="round" />
  <text x="72" y="188" font-family="KaiTi, 'Trebuchet MS', serif" font-size="92" font-weight="700" fill="#2457A6">C# 语法基础</text>
  <text x="76" y="253" font-family="KaiTi, 'Trebuchet MS', serif" font-size="42" font-weight="700" fill="#1F2937">类、继承、方法、<tspan fill="#F2A93B">static</tspan> 与参数</text>
  <path d="M78 284 C208 279 366 289 510 281" fill="none" stroke="#2457A6" stroke-width="3" stroke-linecap="round" />
  <text x="80" y="356" font-family="'Microsoft YaHei', Arial, sans-serif" font-size="36" font-weight="700" fill="#1F2937">从游戏角色示例，建立面向对象思维</text>
  <text x="80" y="406" font-family="'Microsoft YaHei', Arial, sans-serif" font-size="32" fill="#596273">类是“说明书”，对象是按说明书创建的实例。</text>
  <g id="cover-vector-illustration">
    <path d="M694 58 C858 44 1086 55 1210 80 L1205 612 C1048 632 838 624 674 601 Z" fill="#FFF9E9" stroke="#D8D2C5" stroke-width="3" />
    <path d="M720 134 C772 122 836 126 894 143 L889 390 C830 374 773 374 721 390 Z" fill="#FFFDF6" stroke="#2457A6" stroke-width="4" stroke-linejoin="round" />
    <path d="M745 176 C786 165 834 168 868 178" fill="none" stroke="#D8D2C5" stroke-width="3" stroke-linecap="round" />
    <path d="M745 214 C780 205 825 207 858 217" fill="none" stroke="#D8D2C5" stroke-width="3" stroke-linecap="round" />
    <path d="M745 252 C789 241 832 244 866 254" fill="none" stroke="#D8D2C5" stroke-width="3" stroke-linecap="round" />
    <use data-icon="tabler-outline/cube" x="766" y="276" width="86" height="86" fill="#2457A6" stroke-width="2" />
    <path d="M914 250 C952 223 979 218 1016 231" fill="none" stroke="#55A68B" stroke-width="6" stroke-linecap="round" stroke-dasharray="10 8" />
    <path d="M1002 217 L1025 234 L1001 246" fill="none" stroke="#55A68B" stroke-width="6" stroke-linecap="round" stroke-linejoin="round" />
    <g id="player-token">
      <circle cx="1072" cy="196" r="35" fill="#F2A93B" stroke="#1A1A1A" stroke-width="4" />
      <path d="M1019 288 C1028 241 1114 238 1125 288 L1115 381 C1085 395 1057 394 1029 379 Z" fill="#2457A6" stroke="#1A1A1A" stroke-width="4" stroke-linejoin="round" />
      <path d="M1037 314 L1073 338 L1109 314 L1102 365 C1084 378 1062 378 1043 365 Z" fill="#FFFDF6" stroke="#F2A93B" stroke-width="4" stroke-linejoin="round" />
      <circle cx="1061" cy="190" r="4" fill="#1A1A1A" />
      <circle cx="1084" cy="190" r="4" fill="#1A1A1A" />
      <path d="M1061 207 C1068 213 1077 213 1084 207" fill="none" stroke="#1A1A1A" stroke-width="3" stroke-linecap="round" />
    </g>
    <g id="slime-token">
      <path d="M967 431 C970 388 1003 365 1041 372 C1077 350 1126 374 1131 421 C1159 443 1145 490 1107 493 L997 492 C958 488 943 452 967 431 Z" fill="#55A68B" stroke="#1A1A1A" stroke-width="4" stroke-linejoin="round" />
      <circle cx="1023" cy="429" r="6" fill="#1A1A1A" />
      <circle cx="1070" cy="427" r="6" fill="#1A1A1A" />
      <path d="M1022 456 C1037 466 1054 466 1071 454" fill="none" stroke="#1A1A1A" stroke-width="4" stroke-linecap="round" />
    </g>
    <path d="M939 523 C1000 508 1101 509 1160 525" fill="none" stroke="#F2A93B" stroke-width="4" stroke-linecap="round" />
    <text x="1048" y="568" text-anchor="middle" font-family="KaiTi, 'Trebuchet MS', serif" font-size="32" font-weight="700" fill="#2457A6">说明书 → 两个独立对象</text>
  </g>
  <g id="topic-tags">
    <path d="M80 486 C146 478 226 480 294 489 L292 540 C218 548 143 546 76 538 Z" fill="#2457A6" />
    <text x="184" y="523" text-anchor="middle" font-family="Consolas, 'Courier New', monospace" font-size="24" font-weight="700" fill="#FFFDF6">Character</text>
    <path d="M316 489 C383 480 453 481 522 488 L520 540 C450 548 383 548 312 538 Z" fill="#F2A93B" />
    <text x="417" y="523" text-anchor="middle" font-family="Consolas, 'Courier New', monospace" font-size="24" font-weight="700" fill="#1F2937">Player</text>
  </g>
  <text x="80" y="664" font-family="'Microsoft YaHei', Arial, sans-serif" font-size="18" fill="#8A8F98">C# 入门 · Unity 开发基础</text>
</svg>
