<svg xmlns="http://www.w3.org/2000/svg" viewBox="0 0 1280 720" data-pptx-page-role="content">
  <rect id="page-bg" data-pptx-role="background" x="0" y="0" width="1280" height="720" fill="#FFFDF6"/>
  <text x="60" y="78" font-family="KaiTi, 'Trebuchet MS', serif" font-size="56" font-weight="700" fill="#1F2937">Unity 的基本语法：对象是容器，组件给能力</text>
  <text x="62" y="130" font-family="'Microsoft YaHei', Arial, sans-serif" font-size="24" fill="#596273">场景负责组织对象，对象通过组合组件获得行为</text>
  <g id="scene-connectors" stroke="#596273" stroke-width="4" fill="none" stroke-linecap="round" stroke-linejoin="round">
    <line x1="640" y1="205" x2="640" y2="258"/>
    <line x1="264" y1="258" x2="1016" y2="258"/>
    <line x1="264" y1="258" x2="264" y2="306"/>
    <line x1="640" y1="258" x2="640" y2="306"/>
    <line x1="1016" y1="258" x2="1016" y2="306"/>
  </g>
  <rect x="505" y="160" width="270" height="64" rx="20" fill="#2457A6"/>
  <!-- icon: tabler-outline/hierarchy-3 -->
  <g transform="translate(528, 176) scale(1.41667)" fill="none" stroke="#FFFFFF" stroke-width="2">
    <path d="M10 5a2 2 0 1 0 4 0a2 2 0 1 0 -4 0" />
    <path d="M6 12a2 2 0 1 0 4 0a2 2 0 1 0 -4 0" />
    <path d="M10 19a2 2 0 1 0 4 0a2 2 0 1 0 -4 0" />
    <path d="M18 19a2 2 0 1 0 4 0a2 2 0 1 0 -4 0" />
    <path d="M2 19a2 2 0 1 0 4 0a2 2 0 1 0 -4 0" />
    <path d="M14 12a2 2 0 1 0 4 0a2 2 0 1 0 -4 0" />
    <path d="M5 17l2 -3" />
    <path d="M9 10l2 -3" />
    <path d="M13 7l2 3" />
    <path d="M17 14l2 3" />
    <path d="M15 14l-2 3" />
    <path d="M9 14l2 3" />
  </g>
  <text x="652" y="203" text-anchor="middle" font-family="'Microsoft YaHei', Arial, sans-serif" font-size="32" font-weight="700" fill="#FFFFFF">Scene 场景</text>
  <g id="scene-branches" font-family="'Microsoft YaHei', Arial, sans-serif">
    <g transform="translate(94 306)">
      <rect x="0" y="0" width="340" height="286" rx="24" fill="#FFFFFF" stroke="#D8D2C5" stroke-width="3"/>
      <rect x="0" y="0" width="340" height="74" rx="24" fill="#EAF0FA"/>
      <!-- icon: tabler-outline/cube -->
  <g transform="translate(24, 18) scale(1.58333)" fill="none" stroke="#2457A6" stroke-width="2">
    <path d="M21 16.008v-8.018a1.98 1.98 0 0 0 -1 -1.717l-7 -4.008a2.016 2.016 0 0 0 -2 0l-7 4.008c-.619 .355 -1 1.01 -1 1.718v8.018c0 .709 .381 1.363 1 1.717l7 4.008a2.016 2.016 0 0 0 2 0l7 -4.008c.619 -.355 1 -1.01 1 -1.718" />
    <path d="M12 22v-10" />
    <path d="M12 12l8.73 -5.04" />
    <path d="M3.27 6.96l8.73 5.04" />
  </g>
      <text x="82" y="49" font-size="32" font-weight="700" fill="#2457A6">Environment</text>
      <text x="28" y="122" font-size="24" fill="#596273">地面 · 墙体 · 道具</text>
      <text x="28" y="165" font-size="24" fill="#596273">灯光 · 天空盒</text>
      <path d="M28 198 C94 184 168 214 304 194" fill="none" stroke="#F2A93B" stroke-width="6" stroke-linecap="round"/>
      <text x="28" y="245" font-size="24" font-weight="700" fill="#1F2937">负责构成世界</text>
    </g>
    <g transform="translate(470 306)">
      <rect x="0" y="0" width="340" height="286" rx="24" fill="#FFFFFF" stroke="#55A68B" stroke-width="4"/>
      <rect x="0" y="0" width="340" height="74" rx="24" fill="#E8F5F0"/>
      <!-- icon: tabler-outline/walk -->
  <g transform="translate(24, 18) scale(1.58333)" fill="none" stroke="#55A68B" stroke-width="2">
    <path d="M12 4a1 1 0 1 0 2 0a1 1 0 1 0 -2 0" />
    <path d="M7 21l3 -4" />
    <path d="M16 21l-2 -4l-3 -3l1 -6" />
    <path d="M6 12l2 -3l4 -1l3 3l3 1" />
  </g>
      <text x="82" y="49" font-size="32" font-weight="700" fill="#2F8F6A">Player</text>
      <g fill="#FFF9E9" stroke="#D8D2C5" stroke-width="2">
        <rect x="24" y="102" width="132" height="50" rx="14"/>
        <rect x="184" y="102" width="132" height="50" rx="14"/>
        <rect x="24" y="170" width="132" height="50" rx="14"/>
        <rect x="184" y="170" width="132" height="50" rx="14"/>
      </g>
      <g font-size="24" font-weight="700" fill="#1F2937" text-anchor="middle">
        <text x="90" y="136">Transform</text>
        <text x="250" y="136">Collider</text>
        <text x="90" y="204">Renderer</text>
        <text x="250" y="204">Script</text>
      </g>
      <text x="170" y="260" text-anchor="middle" font-size="24" fill="#596273">能力来自组件组合</text>
    </g>
    <g transform="translate(846 306)">
      <rect x="0" y="0" width="340" height="286" rx="24" fill="#FFFFFF" stroke="#D8D2C5" stroke-width="3"/>
      <rect x="0" y="0" width="340" height="74" rx="24" fill="#FFF0D1"/>
      <!-- icon: tabler-outline/camera -->
  <g transform="translate(24, 18) scale(1.58333)" fill="none" stroke="#F2A93B" stroke-width="2">
    <path d="M5 7h1a2 2 0 0 0 2 -2a1 1 0 0 1 1 -1h6a1 1 0 0 1 1 1a2 2 0 0 0 2 2h1a2 2 0 0 1 2 2v9a2 2 0 0 1 -2 2h-14a2 2 0 0 1 -2 -2v-9a2 2 0 0 1 2 -2" />
    <path d="M9 13a3 3 0 1 0 6 0a3 3 0 0 0 -6 0" />
  </g>
      <text x="82" y="49" font-size="32" font-weight="700" fill="#8C5A00">Camera</text>
      <text x="28" y="122" font-size="24" fill="#596273">位置与朝向</text>
      <text x="28" y="165" font-size="24" fill="#596273">视野与裁剪面</text>
      <path d="M28 198 C108 214 210 180 304 198" fill="none" stroke="#2457A6" stroke-width="6" stroke-linecap="round"/>
      <text x="28" y="245" font-size="24" font-weight="700" fill="#1F2937">决定玩家看见什么</text>
    </g>
  </g>
  <g id="footer" data-pptx-role="footer">
    <line x1="58" y1="667" x2="1178" y2="667" stroke="#D8D2C5" stroke-width="2"/>
    <text x="60" y="700" font-family="'Microsoft YaHei', Arial, sans-serif" font-size="18" fill="#8A8F98">Scene → GameObject → Component</text>
    <text id="slide-number" data-pptx-role="page-number" x="1218" y="700" text-anchor="end" font-family="'Microsoft YaHei', Arial, sans-serif" font-size="18" fill="#8A8F98">03</text>
  </g>
</svg>
