<svg xmlns="http://www.w3.org/2000/svg" viewBox="0 0 1280 720" data-pptx-page-role="content">
  <rect id="page-bg" data-pptx-role="background" x="0" y="0" width="1280" height="720" fill="#FFFDF6"/>
  <text x="60" y="76" font-family="KaiTi, 'Trebuchet MS', serif" font-size="56" font-weight="700" fill="#1F2937">Collider 选型：先选简单形状，再考虑精确贴合</text>
  <text x="62" y="124" font-family="'Microsoft YaHei', Arial, sans-serif" font-size="24" fill="#596273">碰撞体定义物理边界；它可以和可见模型完全不同</text>
  <g id="collider-grid" font-family="'Microsoft YaHei', Arial, sans-serif">
    <g transform="translate(60 160)">
      <rect x="0" y="0" width="356" height="194" rx="24" fill="#FFFFFF" stroke="#2457A6" stroke-width="3"/>
      <!-- icon: tabler-outline/box -->
  <g transform="translate(24, 24) scale(2.58333)" fill="none" stroke="#2457A6" stroke-width="2">
    <path d="M12 3l8 4.5l0 9l-8 4.5l-8 -4.5l0 -9l8 -4.5" />
    <path d="M12 12l8 -4.5" />
    <path d="M12 12l0 9" />
    <path d="M12 12l-8 -4.5" />
  </g>
      <text x="110" y="54" font-size="32" font-weight="700" fill="#1F2937">Box Collider</text>
      <text x="24" y="110" font-size="24" fill="#596273">墙体 · 地面 · 箱子</text>
      <text x="24" y="150" font-size="24" fill="#2F8F6A">性能优先，首选</text>
    </g>
    <g transform="translate(462 160)">
      <rect x="0" y="0" width="356" height="194" rx="24" fill="#FFFFFF" stroke="#55A68B" stroke-width="3"/>
      <!-- icon: tabler-outline/circle -->
  <g transform="translate(24, 24) scale(2.58333)" fill="none" stroke="#55A68B" stroke-width="2">
    <path d="M3 12a9 9 0 1 0 18 0a9 9 0 1 0 -18 0" />
  </g>
      <text x="110" y="54" font-size="32" font-weight="700" fill="#1F2937">Sphere Collider</text>
      <text x="24" y="110" font-size="24" fill="#596273">球体 · 范围检测</text>
      <text x="24" y="150" font-size="24" fill="#2F8F6A">旋转稳定，计算轻</text>
    </g>
    <g transform="translate(864 160)">
      <rect x="0" y="0" width="356" height="194" rx="24" fill="#FFFFFF" stroke="#F2A93B" stroke-width="3"/>
      <!-- icon: tabler-outline/capsule -->
  <g transform="translate(24, 24) scale(2.58333)" fill="none" stroke="#F2A93B" stroke-width="2">
    <path d="M6 9a6 6 0 0 1 6 -6a6 6 0 0 1 6 6v6a6 6 0 0 1 -6 6a6 6 0 0 1 -6 -6l0 -6" />
  </g>
      <text x="110" y="54" font-size="32" font-weight="700" fill="#1F2937">Capsule Collider</text>
      <text x="24" y="110" font-size="24" fill="#596273">角色 · 柱状物体</text>
      <text x="24" y="150" font-size="24" fill="#8C5A00">转角不易卡住</text>
    </g>
    <g transform="translate(160 390)">
      <rect x="0" y="0" width="438" height="198" rx="24" fill="#FFFFFF" stroke="#D8D2C5" stroke-width="3"/>
      <!-- icon: tabler-outline/cube -->
  <g transform="translate(24, 24) scale(2.58333)" fill="none" stroke="#596273" stroke-width="2">
    <path d="M21 16.008v-8.018a1.98 1.98 0 0 0 -1 -1.717l-7 -4.008a2.016 2.016 0 0 0 -2 0l-7 4.008c-.619 .355 -1 1.01 -1 1.718v8.018c0 .709 .381 1.363 1 1.717l7 4.008a2.016 2.016 0 0 0 2 0l7 -4.008c.619 -.355 1 -1.01 1 -1.718" />
    <path d="M12 22v-10" />
    <path d="M12 12l8.73 -5.04" />
    <path d="M3.27 6.96l8.73 5.04" />
  </g>
      <text x="110" y="54" font-size="32" font-weight="700" fill="#1F2937">Mesh Collider</text>
      <text x="24" y="110" font-size="24" fill="#596273">复杂静态模型 · 不规则地形</text>
      <text x="24" y="150" font-size="24" fill="#D85C45">开销较大，谨慎用于动态物体</text>
    </g>
    <g transform="translate(682 390)">
      <rect x="0" y="0" width="438" height="198" rx="24" fill="#FFF0D1" stroke="#F2A93B" stroke-width="3"/>
      <!-- icon: tabler-outline/checklist -->
  <g transform="translate(24, 24) scale(2.58333)" fill="none" stroke="#F2A93B" stroke-width="2">
    <path d="M9.615 20h-2.615a2 2 0 0 1 -2 -2v-12a2 2 0 0 1 2 -2h8a2 2 0 0 1 2 2v8" />
    <path d="M14 19l2 2l4 -4" />
    <path d="M9 8h4" />
    <path d="M9 12h2" />
  </g>
      <text x="110" y="54" font-size="32" font-weight="700" fill="#1F2937">选型顺序</text>
      <text x="24" y="110" font-size="24" fill="#1F2937">① 盒 → ② 球 / 胶囊</text>
      <text x="24" y="150" font-size="24" fill="#1F2937">③ 组合体 → ④ 网格</text>
    </g>
  </g>
  <path d="M610 320 C628 340 646 340 664 320" fill="none" stroke="#F2A93B" stroke-width="7" stroke-linecap="round"/>
  <g id="footer" data-pptx-role="footer">
    <line x1="58" y1="667" x2="1178" y2="667" stroke="#D8D2C5" stroke-width="2"/>
    <text x="60" y="700" font-family="'Microsoft YaHei', Arial, sans-serif" font-size="18" fill="#8A8F98">Collider · 物理边界选型</text>
    <text id="slide-number" data-pptx-role="page-number" x="1218" y="700" text-anchor="end" font-family="'Microsoft YaHei', Arial, sans-serif" font-size="18" fill="#8A8F98">05</text>
  </g>
</svg>
