<svg xmlns="http://www.w3.org/2000/svg" viewBox="0 0 1280 720" data-pptx-page-role="content">
  <rect id="page-bg" data-pptx-role="background" x="0" y="0" width="1280" height="720" fill="#FFFDF6"/>
  <text x="60" y="76" font-family="KaiTi, 'Trebuchet MS', serif" font-size="56" font-weight="700" fill="#1F2937">Prefab：把调好的对象，变成可复用的资产</text>
  <text x="62" y="124" font-family="'Microsoft YaHei', Arial, sans-serif" font-size="24" fill="#596273">统一来源、批量复用、局部覆盖；角色再用 PlayerRoot 组织模块</text>
  <g id="prefab-instances" transform="translate(60 160)" font-family="'Microsoft YaHei', Arial, sans-serif">
    <rect x="0" y="0" width="470" height="438" rx="28" fill="#FFFFFF" stroke="#2457A6" stroke-width="3"/>
    <text x="28" y="56" font-size="36" font-weight="700" fill="#2457A6">Prefab 资产与实例</text>
    <rect x="134" y="92" width="202" height="82" rx="18" fill="#2457A6"/>
    <!-- icon: tabler-outline/package -->
  <g transform="translate(154, 111) scale(1.75)" fill="none" stroke="#FFFFFF" stroke-width="2">
    <path d="M12 3l8 4.5l0 9l-8 4.5l-8 -4.5l0 -9l8 -4.5" />
    <path d="M12 12l8 -4.5" />
    <path d="M12 12l0 9" />
    <path d="M12 12l-8 -4.5" />
    <path d="M16 5.25l-8 4.5" />
  </g>
    <text x="250" y="142" text-anchor="middle" font-size="24" font-weight="700" fill="#FFFFFF">Player.prefab</text>
    <g stroke="#596273" stroke-width="4" fill="none" stroke-linecap="round">
      <line x1="235" y1="174" x2="235" y2="230"/>
      <line x1="100" y1="230" x2="370" y2="230"/>
      <line x1="100" y1="230" x2="100" y2="258"/>
      <line x1="235" y1="230" x2="235" y2="258"/>
      <line x1="370" y1="230" x2="370" y2="258"/>
    </g>
    <g text-anchor="middle">
      <rect x="34" y="258" width="132" height="74" rx="16" fill="#EAF0FA" stroke="#2457A6" stroke-width="2"/>
      <rect x="169" y="258" width="132" height="74" rx="16" fill="#E8F5F0" stroke="#55A68B" stroke-width="2"/>
      <rect x="304" y="258" width="132" height="74" rx="16" fill="#FFF0D1" stroke="#F2A93B" stroke-width="2"/>
      <text x="100" y="304" font-size="24" fill="#2457A6">实例 A</text>
      <text x="235" y="304" font-size="24" fill="#2F8F6A">实例 B</text>
      <text x="370" y="304" font-size="24" fill="#8C5A00">实例 C</text>
    </g>
    <text x="235" y="382" text-anchor="middle" font-size="24" fill="#596273">修改资产 → 实例同步</text>
    <text x="235" y="418" text-anchor="middle" font-size="24" font-weight="700" fill="#D85C45">Override 只保留差异</text>
  </g>
  <g id="player-root" transform="translate(570 160)" font-family="'Microsoft YaHei', Arial, sans-serif">
    <rect x="0" y="0" width="650" height="438" rx="28" fill="#FFF9E9" stroke="#D8D2C5" stroke-width="3"/>
    <!-- icon: tabler-outline/walk -->
  <g transform="translate(28, 20) scale(2)" fill="none" stroke="#55A68B" stroke-width="2">
    <path d="M12 4a1 1 0 1 0 2 0a1 1 0 1 0 -2 0" />
    <path d="M7 21l3 -4" />
    <path d="M16 21l-2 -4l-3 -3l1 -6" />
    <path d="M6 12l2 -3l4 -1l3 3l3 1" />
  </g>
    <text x="94" y="56" font-size="36" font-weight="700" fill="#1F2937">PlayerRoot：稳定的角色根节点</text>
    <rect x="180" y="90" width="290" height="64" rx="18" fill="#55A68B"/>
    <text x="325" y="133" text-anchor="middle" font-size="32" font-weight="700" fill="#FFFFFF">PlayerRoot</text>
    <g stroke="#596273" stroke-width="4" fill="none" stroke-linecap="round">
      <line x1="325" y1="154" x2="325" y2="208"/>
      <line x1="94" y1="208" x2="556" y2="208"/>
      <line x1="94" y1="208" x2="94" y2="240"/>
      <line x1="248" y1="208" x2="248" y2="240"/>
      <line x1="402" y1="208" x2="402" y2="240"/>
      <line x1="556" y1="208" x2="556" y2="240"/>
    </g>
    <g text-anchor="middle">
      <rect x="22" y="240" width="144" height="116" rx="18" fill="#EAF0FA" stroke="#2457A6" stroke-width="2"/>
      <rect x="176" y="240" width="144" height="116" rx="18" fill="#E8F5F0" stroke="#55A68B" stroke-width="2"/>
      <rect x="330" y="240" width="144" height="116" rx="18" fill="#FFF0D1" stroke="#F2A93B" stroke-width="2"/>
      <rect x="484" y="240" width="144" height="116" rx="18" fill="#F4F0E8" stroke="#596273" stroke-width="2"/>
      <text x="94" y="286" font-size="24" font-weight="700" fill="#2457A6">Visual</text>
      <text x="94" y="326" font-size="24" fill="#596273">模型动画</text>
      <text x="248" y="286" font-size="24" font-weight="700" fill="#2F8F6A">Physics</text>
      <text x="248" y="326" font-size="24" fill="#596273">碰撞控制</text>
      <text x="402" y="286" font-size="24" font-weight="700" fill="#8C5A00">Camera</text>
      <text x="402" y="326" font-size="24" fill="#596273">镜头轴</text>
      <text x="556" y="286" font-size="24" font-weight="700" fill="#596273">Scripts</text>
      <text x="556" y="326" font-size="24" fill="#596273">输入行为</text>
    </g>
    <text x="325" y="410" text-anchor="middle" font-size="24" font-weight="700" fill="#1F2937">根节点负责移动，子节点各司其职</text>
  </g>
  <g id="footer" data-pptx-role="footer">
    <line x1="58" y1="667" x2="1178" y2="667" stroke="#D8D2C5" stroke-width="2"/>
    <text x="60" y="700" font-family="'Microsoft YaHei', Arial, sans-serif" font-size="18" fill="#8A8F98">Prefab · 复用与模块组合</text>
    <text id="slide-number" data-pptx-role="page-number" x="1218" y="700" text-anchor="end" font-family="'Microsoft YaHei', Arial, sans-serif" font-size="18" fill="#8A8F98">11</text>
  </g>
</svg>
