<svg xmlns="http://www.w3.org/2000/svg" viewBox="0 0 1280 720" data-pptx-page-role="cover">
  <rect id="page-bg" data-pptx-role="background" x="0" y="0" width="1280" height="720" fill="#FFFDF6"/>
  <path d="M0 585 C230 520 420 680 664 606 C920 530 1080 630 1280 522 L1280 720 L0 720 Z" fill="#F4F0E8"/>
  <path d="M68 114 C230 88 356 110 482 92" fill="none" stroke="#F2A93B" stroke-width="10" stroke-linecap="round"/>
  <text x="66" y="230" font-family="KaiTi, 'Trebuchet MS', serif" font-size="92" font-weight="700" fill="#1F2937">游戏交互设计</text>
  <text x="70" y="300" font-family="KaiTi, 'Trebuchet MS', serif" font-size="42" font-weight="700" fill="#2457A6">从概念到实践：让玩家真正想动手</text>
  <text x="72" y="370" font-family="'Microsoft YaHei', Arial, sans-serif" font-size="32" fill="#596273">交互不是按键，而是玩家与世界之间的一场对话</text>
  <g id="interaction-loop" transform="translate(785 88)" font-family="'Microsoft YaHei', Arial, sans-serif">
    <circle cx="210" cy="210" r="188" fill="#FFFFFF" stroke="#D8D2C5" stroke-width="4"/>
    <path d="M210 54 A156 156 0 0 1 356 162" fill="none" stroke="#2457A6" stroke-width="12" stroke-linecap="round"/>
    <path d="M345 140 L360 164 L332 168" fill="none" stroke="#2457A6" stroke-width="8" stroke-linejoin="round"/>
    <path d="M366 210 A156 156 0 0 1 258 356" fill="none" stroke="#55A68B" stroke-width="12" stroke-linecap="round"/>
    <path d="M280 345 L256 360 L252 332" fill="none" stroke="#55A68B" stroke-width="8" stroke-linejoin="round"/>
    <path d="M210 366 A156 156 0 0 1 64 258" fill="none" stroke="#F2A93B" stroke-width="12" stroke-linecap="round"/>
    <path d="M75 280 L60 256 L88 252" fill="none" stroke="#F2A93B" stroke-width="8" stroke-linejoin="round"/>
    <path d="M54 210 A156 156 0 0 1 162 64" fill="none" stroke="#D85C45" stroke-width="12" stroke-linecap="round"/>
    <path d="M140 75 L164 60 L168 88" fill="none" stroke="#D85C45" stroke-width="8" stroke-linejoin="round"/>
    <g font-size="24" font-weight="700" text-anchor="middle">
      <rect x="126" y="28" width="168" height="54" rx="16" fill="#EAF0FA"/><text x="210" y="63" fill="#2457A6">产生想法</text>
      <rect x="302" y="184" width="112" height="54" rx="16" fill="#E8F5F0"/><text x="358" y="219" fill="#2F8F6A">操作</text>
      <rect x="126" y="338" width="168" height="54" rx="16" fill="#FFF0D1"/><text x="210" y="373" fill="#8C5A00">世界变化</text>
      <rect x="8" y="184" width="112" height="54" rx="16" fill="#F4F0E8"/><text x="64" y="219" fill="#D85C45">反馈</text>
    </g>
    <use data-icon="tabler-outline/device-gamepad" x="150" y="150" width="120" height="120" fill="#1F2937" stroke-width="2"/>
  </g>
  <g id="cover-tag" transform="translate(70 492)">
    <rect x="0" y="0" width="610" height="92" rx="22" fill="#FFFFFF" stroke="#D8D2C5" stroke-width="3"/>
    <use data-icon="tabler-outline/bulb" x="24" y="23" width="46" height="46" fill="#F2A93B" stroke-width="2"/>
    <text x="92" y="57" font-family="'Microsoft YaHei', Arial, sans-serif" font-size="32" font-weight="700" fill="#1F2937">玩家到底在改变什么？</text>
  </g>
  <text x="72" y="674" font-family="'Microsoft YaHei', Arial, sans-serif" font-size="18" fill="#8A8F98">游戏设计课程 · 第 05 单元</text>
</svg>
