<svg xmlns="http://www.w3.org/2000/svg" viewBox="0 0 1280 720" data-pptx-page-role="content"><rect width="1280" height="720" fill="#F7F9FC"/><text x="60" y="82" font-family="'Segoe UI','Microsoft YaHei',sans-serif" font-size="56" font-weight="700" fill="#172033">碰撞负责“发生了什么”，事件负责“通知谁”</text><text x="62" y="128" font-family="'Segoe UI','Microsoft YaHei',sans-serif" font-size="32" fill="#56627A">物理结果与 UI 更新通过事件链解耦</text><g id="chain" font-family="'Segoe UI','Microsoft YaHei',sans-serif" text-anchor="middle"><rect x="60" y="240" width="220" height="180" rx="20" fill="#FFFFFF" stroke="#C9D4F2"/><text x="170" y="310" font-size="42" font-weight="700" fill="#3157D5">Ball</text><text x="170" y="365" font-size="24" fill="#56627A">Rigidbody2D</text><path d="M280 330 H350" stroke="#3157D5" stroke-width="8"/><rect x="350" y="240" width="250" height="180" rx="20" fill="#FFFFFF" stroke="#C9D4F2"/><text x="475" y="310" font-size="42" font-weight="700" fill="#7C4DFF">Trigger</text><text x="475" y="365" font-size="24" fill="#56627A">Collider2D</text><path d="M600 330 H670" stroke="#7C4DFF" stroke-width="8"/><rect x="670" y="240" width="250" height="180" rx="20" fill="#FFFFFF" stroke="#C9D4F2"/><text x="795" y="310" font-size="42" font-weight="700" fill="#3157D5">Scored</text><text x="795" y="365" font-size="24" fill="#56627A">event / UnityEvent</text><path d="M920 330 H990" stroke="#22A6B3" stroke-width="8"/><rect x="990" y="240" width="230" height="180" rx="20" fill="#3157D5"/><text x="1105" y="310" font-size="42" font-weight="700" fill="#FFFFFF">UI</text><text x="1105" y="365" font-size="24" fill="#EAF0FF">更新分数</text></g><rect x="250" y="500" width="780" height="90" rx="18" fill="#EAF0FF"/><text x="290" y="557" font-family="Consolas,'Courier New',monospace" font-size="24" fill="#172033">OnTriggerEnter2D → Scored?.Invoke() → scoreText.text</text><text id="page-number" data-pptx-role="page-number" x="1190" y="680" font-family="'Segoe UI','Microsoft YaHei',sans-serif" font-size="18" fill="#8490A8">10</text></svg>



