<svg xmlns="http://www.w3.org/2000/svg" viewBox="0 0 1280 720" data-pptx-page-role="content"><rect width="1280" height="720" fill="#F7F9FC"/><text x="60" y="82" font-family="'Segoe UI','Microsoft YaHei',sans-serif" font-size="56" font-weight="700" fill="#172033">名称不同，核心问题高度相似</text><text x="62" y="128" font-family="'Segoe UI','Microsoft YaHei',sans-serif" font-size="32" fill="#56627A">先建立概念映射，再学习 Unity 的组件化表达</text><g font-family="'Segoe UI','Microsoft YaHei',sans-serif"><rect x="60" y="180" width="1160" height="64" rx="16" fill="#3157D5"/><text x="100" y="224" font-size="32" font-weight="700" fill="#FFFFFF">Godot</text><text x="470" y="224" font-size="32" font-weight="700" fill="#FFFFFF">Unity</text><text x="850" y="224" font-size="32" font-weight="700" fill="#FFFFFF">用途</text><g font-size="24" fill="#172033"><text x="100" y="292">Node</text><text x="470" y="292">GameObject + Component</text><text x="850" y="292">对象与能力</text><text x="100" y="352">_ready()</text><text x="470" y="352">Start()</text><text x="850" y="352">初始化</text><text x="100" y="412">_process(delta)</text><text x="470" y="412">Update()</text><text x="850" y="412">逐帧逻辑</text><text x="100" y="472">Signal</text><text x="470" y="472">event / UnityEvent</text><text x="850" y="472">事件通知</text><text x="100" y="532">Control / Container</text><text x="470" y="532">RectTransform / Layout Group</text><text x="850" y="532">UI 布局</text><text x="100" y="592">pressed / toggled</text><text x="470" y="592">onClick / onValueChanged</text><text x="850" y="592">交互回调</text></g></g><g stroke="#C9D4F2"><line x1="60" y1="310" x2="1220" y2="310"/><line x1="60" y1="370" x2="1220" y2="370"/><line x1="60" y1="430" x2="1220" y2="430"/><line x1="60" y1="490" x2="1220" y2="490"/><line x1="60" y1="550" x2="1220" y2="550"/></g><text id="page-number" data-pptx-role="page-number" x="1190" y="680" font-family="'Segoe UI','Microsoft YaHei',sans-serif" font-size="18" fill="#8490A8">17</text></svg>



