<svg xmlns="http://www.w3.org/2000/svg" viewBox="0 0 1280 720" data-pptx-page-role="ending"><rect width="1280" height="720" fill="#3157D5"/><text x="60" y="90" font-family="'Segoe UI','Microsoft YaHei',sans-serif" font-size="56" font-weight="700" fill="#FFFFFF">把脚本与 UGUI 连接成一个可玩的原型</text><text x="62" y="140" font-family="'Segoe UI','Microsoft YaHei',sans-serif" font-size="32" fill="#EAF0FF">完整练习必须同时具备运动、碰撞、事件、菜单、参数绑定和一致视觉</text><g font-family="'Segoe UI','Microsoft YaHei',sans-serif" font-size="32"><g fill="#FFFFFF"><rect x="70" y="200" width="550" height="100" rx="18"/><rect x="70" y="325" width="550" height="100" rx="18"/><rect x="70" y="450" width="550" height="100" rx="18"/><rect x="660" y="200" width="550" height="100" rx="18"/><rect x="660" y="325" width="550" height="100" rx="18"/><rect x="660" y="450" width="550" height="100" rx="18"/></g><g fill="#2E9B6F" font-weight="700"><text x="100" y="262"></text><text x="100" y="387"></text><text x="100" y="512"></text><text x="690" y="262"></text><text x="690" y="387"></text><text x="690" y="512"></text></g><g fill="#172033"><text x="150" y="262">Ball / Paddle 可运动</text><text x="150" y="387">边界与计分有效</text><text x="150" y="512">事件更新 UI</text><text x="740" y="262">开始 / 设置 / 返回</text><text x="740" y="387">Slider / Toggle 生效</text><text x="740" y="512">布局与状态统一</text></g></g><text x="70" y="640" font-family="'Segoe UI','Microsoft YaHei',sans-serif" font-size="42" font-weight="700" fill="#FFFFFF">下一步：在 Unity 中动手完成它</text><text id="page-number" data-pptx-role="page-number" x="1190" y="680" font-family="'Segoe UI','Microsoft YaHei',sans-serif" font-size="18" fill="#EAF0FF">18</text></svg>



