<svg xmlns="http://www.w3.org/2000/svg" viewBox="0 0 1280 720" data-pptx-page-role="cover">
  <rect id="page-bg" data-pptx-role="background" x="0" y="0" width="1280" height="720" fill="#FFFDF6"/>
  <path d="M0 590 C230 520 410 680 650 606 C870 540 1040 612 1280 518 L1280 720 L0 720 Z" fill="#F4F0E8"/>
  <path d="M72 112 C244 84 352 104 510 92" fill="none" stroke="#F2A93B" stroke-width="10" stroke-linecap="round"/>
  <text x="66" y="226" font-family="KaiTi, 'Trebuchet MS', serif" font-size="78" font-weight="700" fill="#1F2937">Blender 模型到</text>
  <text x="66" y="316" font-family="KaiTi, 'Trebuchet MS', serif" font-size="92" font-weight="700" fill="#2457A6">Unity 游戏物体</text>
  <text x="72" y="382" font-family="KaiTi, 'Trebuchet MS', serif" font-size="40" font-weight="700" fill="#8C5A00">静态模型的 FBX 导出、导入与 Prefab 管线</text>
  <g id="asset-conveyor" transform="translate(750 78)">
    <rect x="0" y="0" width="446" height="490" rx="30" fill="#FFF9E9" stroke="#D8D2C5" stroke-width="3"/>
    <text x="30" y="50" font-family="Consolas, 'Courier New', monospace" font-size="24" fill="#8A8F98">MODEL → FBX → PREFAB</text>
    <g id="blender-model" transform="translate(34 92)">
      <circle cx="84" cy="78" r="70" fill="#FFF0D1" stroke="#F2A93B" stroke-width="4"/>
      <!-- icon: tabler-outline/cube -->
  <g transform="translate(42, 36) scale(3.5)" fill="none" stroke="#F2A93B" stroke-width="2">
    <path d="M21 16.008v-8.018a1.98 1.98 0 0 0 -1 -1.717l-7 -4.008a2.016 2.016 0 0 0 -2 0l-7 4.008c-.619 .355 -1 1.01 -1 1.718v8.018c0 .709 .381 1.363 1 1.717l7 4.008a2.016 2.016 0 0 0 2 0l7 -4.008c.619 -.355 1 -1.01 1 -1.718" />
    <path d="M12 22v-10" />
    <path d="M12 12l8.73 -5.04" />
    <path d="M3.27 6.96l8.73 5.04" />
  </g>
      <text x="84" y="174" text-anchor="middle" font-family="'Microsoft YaHei', Arial, sans-serif" font-size="26" font-weight="700" fill="#8C5A00">Blender</text>
    </g>
    <path d="M182 170 H255" fill="none" stroke="#596273" stroke-width="6" stroke-linecap="round"/>
    <path d="M238 154 L258 170 L238 186" fill="none" stroke="#596273" stroke-width="6" stroke-linecap="round" stroke-linejoin="round"/>
    <g id="fbx-file" transform="translate(258 94)">
      <rect x="0" y="0" width="150" height="152" rx="22" fill="#FFFFFF" stroke="#F2A93B" stroke-width="4"/>
      <!-- icon: tabler-outline/file-3d -->
  <g transform="translate(45, 22) scale(2.5)" fill="none" stroke="#F2A93B" stroke-width="2">
    <path d="M14 3v4a1 1 0 0 0 1 1h4" />
    <path d="M17 21h-10a2 2 0 0 1 -2 -2v-14a2 2 0 0 1 2 -2h7l5 5v11a2 2 0 0 1 -2 2" />
    <path d="M12 13.5l4 -1.5" />
    <path d="M8 11.846l4 1.654v4.5l4 -1.846v-4.308l-4 -1.846l-4 1.846" />
    <path d="M8 12v4.2l4 1.8" />
  </g>
      <text x="75" y="116" text-anchor="middle" font-family="Consolas, 'Courier New', monospace" font-size="30" font-weight="700" fill="#8C5A00">.fbx</text>
      <text x="75" y="143" text-anchor="middle" font-family="'Microsoft YaHei', Arial, sans-serif" font-size="18" fill="#596273">明确交付</text>
    </g>
    <path d="M223 282 V326" fill="none" stroke="#596273" stroke-width="6" stroke-linecap="round"/>
    <path d="M208 312 L223 329 L238 312" fill="none" stroke="#596273" stroke-width="6" stroke-linecap="round" stroke-linejoin="round"/>
    <g id="unity-prefab" transform="translate(66 340)">
      <rect x="0" y="0" width="314" height="110" rx="22" fill="#EAF0FA" stroke="#2457A6" stroke-width="4"/>
      <!-- icon: tabler-outline/package-export -->
  <g transform="translate(24, 27) scale(2.33333)" fill="none" stroke="#2457A6" stroke-width="2">
    <path d="M12 21l-8 -4.5v-9l8 -4.5l8 4.5v4.5" />
    <path d="M12 12l8 -4.5" />
    <path d="M12 12v9" />
    <path d="M12 12l-8 -4.5" />
    <path d="M15 18h7" />
    <path d="M19 15l3 3l-3 3" />
  </g>
      <text x="98" y="48" font-family="'Microsoft YaHei', Arial, sans-serif" font-size="30" font-weight="700" fill="#2457A6">Unity Prefab</text>
      <text x="98" y="82" font-family="'Microsoft YaHei', Arial, sans-serif" font-size="22" fill="#596273">材质 · 碰撞 · 脚本</text>
    </g>
  </g>
  <g id="cover-rule" transform="translate(72 494)">
    <rect x="0" y="0" width="610" height="88" rx="20" fill="#FFFFFF" stroke="#D8D2C5" stroke-width="3"/>
    <!-- icon: tabler-outline/route -->
  <g transform="translate(24, 24) scale(1.66667)" fill="none" stroke="#2457A6" stroke-width="2">
    <path d="M3 19a2 2 0 1 0 4 0a2 2 0 0 0 -4 0" />
    <path d="M19 7a2 2 0 1 0 0 -4a2 2 0 0 0 0 4" />
    <path d="M11 19h5.5a3.5 3.5 0 0 0 0 -7h-8a3.5 3.5 0 0 1 0 -7h4.5" />
  </g>
    <text x="84" y="55" font-family="Consolas, 'Courier New', monospace" font-size="24" font-weight="700" fill="#1F2937">Source → Export → Import → Verify</text>
  </g>
  <text x="74" y="674" font-family="'Microsoft YaHei', Arial, sans-serif" font-size="18" fill="#8A8F98">Unity 基础课程 · 第 06 单元</text>
</svg>
