<svg xmlns="http://www.w3.org/2000/svg" viewBox="0 0 1280 720" data-pptx-page-role="cover">
  <rect id="page-bg" data-pptx-role="background" x="0" y="0" width="1280" height="720" fill="#FFFDF6"/>
  <path d="M0 586 C230 526 390 676 635 608 C860 546 1040 610 1280 520 L1280 720 L0 720 Z" fill="#F4F0E8"/>
  <path d="M72 114 C220 86 350 104 502 92" fill="none" stroke="#F2A93B" stroke-width="10" stroke-linecap="round"/>
  <text x="68" y="236" font-family="KaiTi, 'Trebuchet MS', serif" font-size="92" font-weight="700" fill="#1F2937">Unity 语法基础</text>
  <text x="72" y="306" font-family="KaiTi, 'Trebuchet MS', serif" font-size="42" font-weight="700" fill="#2457A6">MonoBehaviour、生命周期与常用对象</text>
  <text x="74" y="374" font-family="'Microsoft YaHei', Arial, sans-serif" font-size="32" fill="#596273">让脚本在正确的对象上，于正确的时机做正确的事</text>
  <g id="component-hero" transform="translate(770 76)">
    <rect x="0" y="0" width="424" height="476" rx="28" fill="#FFF9E9" stroke="#D8D2C5" stroke-width="3"/>
    <text x="30" y="48" font-family="Consolas, 'Courier New', monospace" font-size="24" fill="#8A8F98">SCRIPT → COMPONENT</text>
    <rect x="52" y="86" width="320" height="300" rx="24" fill="#FFFFFF" stroke="#2457A6" stroke-width="4"/>
    <g id="gameobject-label">
      <use data-icon="tabler-outline/cube" x="78" y="110" width="42" height="42" fill="#2457A6" stroke-width="2"/>
      <text x="136" y="142" font-family="'Microsoft YaHei', Arial, sans-serif" font-size="32" font-weight="700" fill="#1F2937">Player</text>
      <text x="318" y="139" text-anchor="end" font-family="Consolas, 'Courier New', monospace" font-size="18" fill="#8A8F98">GameObject</text>
    </g>
    <line x1="76" y1="168" x2="348" y2="168" stroke="#D8D2C5" stroke-width="3" stroke-linecap="round"/>
    <g id="component-slots" font-family="'Microsoft YaHei', Arial, sans-serif" font-size="24" font-weight="700">
      <rect x="76" y="188" width="272" height="54" rx="14" fill="#EAF0FA" stroke="#2457A6" stroke-width="2"/>
      <use data-icon="tabler-outline/transform" x="92" y="200" width="30" height="30" fill="#2457A6" stroke-width="2"/>
      <text x="138" y="224" fill="#2457A6">Transform</text>
      <rect x="76" y="254" width="272" height="54" rx="14" fill="#E8F5F0" stroke="#55A68B" stroke-width="2"/>
      <use data-icon="tabler-outline/components" x="92" y="266" width="30" height="30" fill="#2F8F6A" stroke-width="2"/>
      <text x="138" y="290" fill="#2F8F6A">CharacterController</text>
      <rect x="76" y="320" width="272" height="54" rx="14" fill="#FFF0D1" stroke="#F2A93B" stroke-width="3"/>
      <use data-icon="tabler-outline/code" x="92" y="332" width="30" height="30" fill="#8C5A00" stroke-width="2"/>
      <text x="138" y="356" fill="#8C5A00">SimpleMover.cs</text>
    </g>
    <path d="M348 346 C398 346 399 425 340 425" fill="none" stroke="#F2A93B" stroke-width="5" stroke-linecap="round"/>
    <path d="M350 408 L332 425 L352 439" fill="none" stroke="#F2A93B" stroke-width="5" stroke-linecap="round" stroke-linejoin="round"/>
    <use data-icon="tabler-outline/repeat" x="280" y="399" width="54" height="54" fill="#F2A93B" stroke-width="2"/>
  </g>
  <g id="cover-formula" transform="translate(72 492)">
    <rect x="0" y="0" width="612" height="88" rx="20" fill="#FFFFFF" stroke="#D8D2C5" stroke-width="3"/>
    <use data-icon="tabler-outline/clock" x="24" y="24" width="40" height="40" fill="#2457A6" stroke-width="2"/>
    <text x="84" y="55" font-family="Consolas, 'Courier New', monospace" font-size="24" font-weight="700" fill="#1F2937">Object + Callback + Time.deltaTime</text>
  </g>
  <text x="74" y="674" font-family="'Microsoft YaHei', Arial, sans-serif" font-size="18" fill="#8A8F98">Unity 基础课程 · 第 02 单元</text>
</svg>
