<svg xmlns="http://www.w3.org/2000/svg" viewBox="0 0 1280 720" data-pptx-page-role="content">
  <rect id="background" data-pptx-role="background" x="0" y="0" width="1280" height="720" fill="#FFFDF6"/>
  <text x="62" y="70" font-family="KaiTi, 'Trebuchet MS', serif" font-size="56" font-weight="700" fill="#2457A6">访问修饰符决定</text>
  <text x="62" y="126" font-family="KaiTi, 'Trebuchet MS', serif" font-size="56" font-weight="700" fill="#2457A6">“谁能碰这些成员”</text>
  <text x="722" y="114" font-family="'Microsoft YaHei', Arial, sans-serif" font-size="24" fill="#596273">它定义的是边界，不是装饰。</text>
  <g id="card-public">
    <path d="M54 177 C170 168 308 173 421 183 L418 497 C293 506 168 502 54 494 Z" fill="#F4F0E8"/>
    <path d="M76 242 C179 234 288 239 399 246 L397 478 C285 486 180 482 76 476 Z" fill="#FFFDF6"/>
    <path d="M140 177 h 194 a 24 24 0 0 1 24 24 v 41 H116 v -41 a 24 24 0 0 1 24 -24 Z" fill="#2457A6"/>
    <text x="237" y="221" text-anchor="middle" font-family="Consolas, 'Courier New', monospace" font-size="32" font-weight="700" fill="#FFFDF6">public</text>
    <!-- icon: tabler-outline/world-code -->
  <g transform="translate(95, 276) scale(2)" fill="none" stroke="#2457A6" stroke-width="2">
    <path d="M20.942 13.02a9 9 0 1 0 -9.47 7.964" />
    <path d="M3.6 9h16.8" />
    <path d="M3.6 15h9.9" />
    <path d="M11.5 3a17 17 0 0 0 0 18" />
    <path d="M12.5 3c2 3.206 2.837 6.913 2.508 10.537" />
    <path d="M20 21l2 -2l-2 -2" />
    <path d="M17 17l-2 2l2 2" />
  </g>
    <text x="161" y="311" font-family="KaiTi, 'Trebuchet MS', serif" font-size="36" font-weight="700" fill="#1F2937">对外开放</text>
    <text x="95" y="365" font-family="'Microsoft YaHei', Arial, sans-serif" font-size="24" fill="#596273">拿到对象的代码都能访问</text>
    <text x="95" y="402" font-family="'Microsoft YaHei', Arial, sans-serif" font-size="24" fill="#596273">常用于对外提供的方法</text>
    <text x="95" y="452" font-family="Consolas, 'Courier New', monospace" font-size="24" fill="#2457A6">public void Attack()</text>
  </g>
  <g id="card-private">
    <path d="M455 177 C571 168 709 173 822 183 L819 497 C694 506 569 502 455 494 Z" fill="#F4F0E8"/>
    <path d="M477 242 C580 234 689 239 800 246 L798 478 C686 486 581 482 477 476 Z" fill="#FFFDF6"/>
    <path d="M541 177 h 194 a 24 24 0 0 1 24 24 v 41 H517 v -41 a 24 24 0 0 1 24 -24 Z" fill="#F2A93B"/>
    <text x="638" y="221" text-anchor="middle" font-family="Consolas, 'Courier New', monospace" font-size="32" font-weight="700" fill="#1F2937">private</text>
    <!-- icon: tabler-outline/lock -->
  <g transform="translate(496, 276) scale(2)" fill="none" stroke="#F2A93B" stroke-width="2">
    <path d="M5 13a2 2 0 0 1 2 -2h10a2 2 0 0 1 2 2v6a2 2 0 0 1 -2 2h-10a2 2 0 0 1 -2 -2v-6" />
    <path d="M11 16a1 1 0 1 0 2 0a1 1 0 0 0 -2 0" />
    <path d="M8 11v-4a4 4 0 1 1 8 0v4" />
  </g>
    <text x="562" y="311" font-family="KaiTi, 'Trebuchet MS', serif" font-size="36" font-weight="700" fill="#1F2937">类内上锁</text>
    <text x="496" y="365" font-family="'Microsoft YaHei', Arial, sans-serif" font-size="24" fill="#596273">只有当前类内部能访问</text>
    <text x="496" y="402" font-family="'Microsoft YaHei', Arial, sans-serif" font-size="24" fill="#596273">用于保护内部数据</text>
    <text x="496" y="452" font-family="Consolas, 'Courier New', monospace" font-size="24" fill="#D85C45">private int health;</text>
  </g>
  <g id="card-protected">
    <path d="M856 177 C972 168 1110 173 1223 183 L1220 497 C1095 506 970 502 856 494 Z" fill="#F4F0E8"/>
    <path d="M878 242 C981 234 1090 239 1201 246 L1199 478 C1087 486 982 482 878 476 Z" fill="#FFFDF6"/>
    <path d="M942 177 h 194 a 24 24 0 0 1 24 24 v 41 H918 v -41 a 24 24 0 0 1 24 -24 Z" fill="#55A68B"/>
    <text x="1039" y="221" text-anchor="middle" font-family="Consolas, 'Courier New', monospace" font-size="32" font-weight="700" fill="#FFFDF6">protected</text>
    <!-- icon: tabler-outline/shield -->
  <g transform="translate(897, 276) scale(2)" fill="none" stroke="#55A68B" stroke-width="2">
    <path d="M12 3a12 12 0 0 0 8.5 3a12 12 0 0 1 -8.5 15a12 12 0 0 1 -8.5 -15a12 12 0 0 0 8.5 -3" />
  </g>
    <text x="963" y="311" font-family="KaiTi, 'Trebuchet MS', serif" font-size="36" font-weight="700" fill="#1F2937">对子类开放</text>
    <text x="897" y="365" font-family="'Microsoft YaHei', Arial, sans-serif" font-size="24" fill="#596273">当前类和它的子类可访问</text>
    <text x="897" y="402" font-family="'Microsoft YaHei', Arial, sans-serif" font-size="24" fill="#596273">为继承留下扩展点</text>
    <text x="897" y="452" font-family="Consolas, 'Courier New', monospace" font-size="24" fill="#2F8F6A">protected int level;</text>
  </g>
  <g id="recommendation">
    <path d="M108 535 C328 523 683 531 1158 522 L1168 620 C788 631 421 625 98 618 Z" fill="#FFF9E9" stroke="#F2A93B" stroke-width="3"/>
    <text x="132" y="574" font-family="KaiTi, 'Trebuchet MS', serif" font-size="32" font-weight="700" fill="#F2A93B">推荐</text>
    <text x="239" y="574" font-family="'Microsoft YaHei', Arial, sans-serif" font-size="32" font-weight="700" fill="#1F2937">数据先设为 <tspan font-family="Consolas, 'Courier New', monospace" fill="#D85C45">private</tspan></text>
    <text x="239" y="612" font-family="'Microsoft YaHei', Arial, sans-serif" font-size="24" fill="#596273">再通过方法控制它如何改变，避免外部代码任意改写。</text>
  </g>
  <g id="footer" data-pptx-role="footer">
    <path d="M58 667 C342 662 618 670 906 666 C1036 664 1110 669 1178 666" fill="none" stroke="#D8D2C5" stroke-width="2"/>
    <text x="60" y="700" font-family="'Microsoft YaHei', Arial, sans-serif" font-size="18" fill="#8A8F98">C# 入门 · 访问边界</text>
  </g>
  <text id="slide-number" data-pptx-role="page-number" x="1218" y="700" text-anchor="end" font-family="'Microsoft YaHei', Arial, sans-serif" font-size="18" fill="#8A8F98">05</text>
</svg>
